<svg viewBox="0 0 1226 620" xmlns="http://www.w3.org/2000/svg" xmlns:xlink="http://www.w3.org/1999/xlink" xml:space="preserve" fill-rule="evenodd" clip-rule="evenodd" stroke-linecap="round">
	<g transform="translate(107.732 94.726)">
		<filter id="blur" style="color-interpolation-filters:sRGB">
			<feGaussianBlur result="blur" stdDeviation="13.5 13.5" />
			<feColorMatrix result="colormatrix" values="1 0 0 0 0 0 1 0 0 0 0 0 1 0 0 0 0 0 50 0" />
			<feComposite in="colormatrix" in2="SourceGraphic" operator="in" />
		</filter>
		<path id="Browser-Window" fill="#D5D8DB" d="M-94.125-81.119h1198.35v592.728H-94.125z"/>
		<path id="Tab" d="M-15.213-73.738h140.905c21.418 0 5.639 24.242 28.184 24.242v10.541H-43.397v-10.541c22.549 0 6.766-24.242 28.184-24.242Z" fill="#E9E9E9"/>
		<path id="Close-Tab-Button" d="M1011.31 1556.02c-.01-.53-.21-1.03-.58-1.4l-6.06-6.06 6.06-6.06c.76-.77.76-2.03 0-2.8l-2.8-2.8c-.77-.76-2.03-.76-2.8 0l-6.062 6.05-6.055-6.05a2.01 2.01 0 0 0-2.804 0l-2.797 2.8c-.76.77-.76 2.03 0 2.8l6.055 6.06-6.059 6.05a2.008 2.008 0 0 0 0 2.8l2.801 2.81a2.01 2.01 0 0 0 2.804 0l6.055-6.06 6.062 6.06c.77.76 2.02.76 2.8 0l2.8-2.81c.37-.37.57-.87.58-1.39" fill="#698094" transform="matrix(.29825 0 0 .27888 -173.594 -493.107)"/>
		<path id="New-Tab-Button" d="M1124.53 1546.34c0-1.24-1.02-2.26-2.26-2.27h-9.82v-9.81c0-1.24-1.02-2.26-2.26-2.27h-4.53c-1.25 0-2.27 1.03-2.27 2.27v9.82h-9.81c-1.24 0-2.27 1.02-2.27 2.26v4.53c0 1.25 1.03 2.27 2.27 2.27h9.81v9.81c0 1.24 1.03 2.26 2.27 2.27h4.53c1.24 0 2.26-1.03 2.26-2.27v-9.81h9.82c1.24 0 2.26-1.03 2.26-2.27v-4.53" fill="#698094" transform="matrix(.29825 0 0 .27888 -173.594 -493.107)"/>
		<path id="Navigation-Bar" fill="#E9E9E9" d="M-90.739-49.496h1191.58v35.837H-90.739z"/>
		<path id="Hamburger-Menu-Button" d="M2507.18 1667.74c0-1.11-.91-2.02-2.02-2.03h-44.56c-1.1.01-2.01.92-2.02 2.03v4.04c.01 1.11.92 2.02 2.03 2.03h44.55c1.11-.01 2.02-.92 2.02-2.03v-4.04m0-16.21c0-1.11-.91-2.01-2.02-2.02h-44.56c-1.1.01-2.01.91-2.02 2.02v4.05c.01 1.11.92 2.02 2.03 2.03h44.55c1.11-.01 2.02-.92 2.02-2.03v-4.05m0-16.2c0-1.11-.91-2.02-2.02-2.03h-44.56c-1.1.01-2.01.92-2.02 2.03v4.05c.01 1.11.92 2.02 2.03 2.03h44.55c1.11-.01 2.02-.92 2.02-2.03v-4.05" fill="#698094" transform="matrix(.29825 0 0 .27888 340.361 -492.729)"/>
		<path id="Vertical-Separator" d="M1060.6-25.261v-12.632" fill="none" stroke="#697394"/>
		<g id="Scratch-Addons" transform="translate(1033.03 -38.853) scale(.00997)">
			<circle cx="729.448" cy="729.449" r="729.448" fill="#FF7B26"/>
			<path d="M957.263 920.126c-37.856 105.264-140.765 169.244-305.79 190.184-7.392.94-14.823 1.53-22.269 1.77-9.611 14.11-22.152 26.34-36.922 35.87-38.676 24.82-74.895 36.93-110.642 36.93-73.489 0-152.602-55.04-152.602-175.95 0-8.24.355-18.939 1.172-33.759.359-6.349.706-11.293.823-14.937a130.992 130.992 0 0 1-3.05-27.877v-56.928c0-9.29.941-18.58 2.812-27.874.136-7.88.473-16.701 1.059-26.343-2.816-10.356-4.925-22.348-4.925-35.758 0-6.115.469-12.23 1.289-18.229 4.452-31.521 18.402-63.163 41.96-88.448a211.929 211.929 0 0 1-12.306-71.278v-59.981c0-24.352 4.804-54.694 28.361-130.205 9.846-32.466 13.01-42.576 17.348-51.987 23.09-51.987 57.903-77.979 83.218-90.799 41.371-20.701 85.795-31.287 131.973-31.287 21.332 0 41.726 2.237 61.18 6.47a157.664 157.664 0 0 1 27.779-14.94c12.541-5.409 25.901-9.173 40.668-11.528 36.926-6.349 75.953 1.531 109.942 22.231 35.747 21.88 76.77 67.276 71.728 160.668-.816 16.464-2.23 38.46-4.335 67.158-.132.707-.132 1.41-.223 2.117-1.871 20.818-4.573 51.866-8.201 92.916.937 15.878.582 33.638-.821 54.576a125.39 125.39 0 0 1-3.987 23.758 136.84 136.84 0 0 1-1.41 4.94 255.967 255.967 0 0 1 33.989 58.337c6.917 13.996 12.775 30.111 17.934 49.754a122.292 122.292 0 0 1 3.867 22.582c5.276 65.983 2.577 104.912-9.612 137.847h-.007Z" fill="#fff"/>
			<path d="M838.714 795.194c3.432 42.777 2.729 70.348-2.067 82.768-19.948 56.56-86.967 92.069-201.033 106.56-38.498 4.837-76.978-13.444-115.48-54.834 0 6.21 1.372 24.832 4.135 55.881 2.068 22.761 1.712 41.381-1.032 55.861-17.196 11.03-30.931 16.55-41.242 16.55-15.825 0-23.713-15.51-23.713-46.56 0-5.52.356-14.301 1.032-26.369.681-12.057 1.032-20.512 1.032-25.346 0-11.728-1.032-19.993-3.095-24.831v-56.901c0-1.379.355-2.929 1.031-4.656a59.206 59.206 0 0 1 2.064-4.66c-.692-9.646-.355-24.477 1.032-44.485 1.368-12.416 1.368-20.334 0-23.793-3.447-6.878-5.144-11.021-5.144-12.408 2.733-19.313 16.842-28.97 42.263-28.97 16.493 0 26.456 5.87 29.899 17.586 0 11.033 1.376 27.251 4.124 48.624 4.138 24.828 17.185 49.667 39.182 74.487 24.053 28.286 47.07 41.386 69.082 39.318 24.741-2.74 49.486-8.61 74.23-17.582 34.364-12.423 54.977-26.899 61.86-43.45 4.792-12.419 7.207-25.511 7.207-39.318 0-42.062-15.458-73.451-46.39-94.14-13.757-8.965-39.182-16.211-76.301-21.736-21.309-2.741-34.378-4.139-39.171-4.139-32.995.692-63.76-9.997-92.277-32.077-28.528-22.065-42.78-47.599-42.78-76.565v-59.997c0-13.092 7.559-43.789 22.692-92.069 6.856-22.775 10.643-34.828 11.346-36.219 6.176-14.476 14.075-24.132 23.698-28.966 23.357-11.717 48.102-17.586 74.23-17.586 50.853 0 88.312 20.689 112.373 62.067 2.067 2.071 5.499 5.178 10.318 9.316.676-9.645 2.063-24.476 4.119-44.485-.664-8.622-1.35-17.244-2.06-25.863 0-9.645 4.793-16.195 14.427-19.653 2.74-1.372 6.527-2.408 11.346-3.1 6.867-1.383 14.264.352 22.175 5.159 7.887 4.838 11.157 19.325 9.789 43.45-.692 15.171-2.068 36.555-4.128 64.138-2.063 22.768-5.144 57.597-9.282 104.501 1.375 11.032 1.375 26.218 0 45.516-3.447 13.104-13.758 19.654-30.932 19.654-8.942 0-17.522-2.408-25.772-7.23-4.124-13.093-6.176-18.633-6.176-16.562 1.36-18.618-2.415-43.45-11.346-74.487-7.571-15.855-18.036-38.438-31.446-67.759-13.41-29.311-31.105-45.015-53.095-47.082-27.496-2.071-45.358 7.245-53.609 27.931-2.743 8.976-6.538 22.091-11.338 39.322-8.247 25.523-13.406 50.011-15.47 73.451-.688 7.597-1.379 10.704-2.063 9.317a862.567 862.567 0 0 0 7.219 41.385c3.435 17.246 11.864 30.361 25.258 39.308 13.41 8.976 38.997 14.483 76.808 16.554 92.779 5.537 150.16 37.954 172.161 97.255 3.424 5.529 6.86 14.83 10.303 27.923l.007-.004Z" fill="#FF7B26"/>
			<path fill="#FF7B26" d="M610.393 810.709h521.574v427.086H610.393z"/>
			<path d="M735.118 878.74v56.693h-37.796V1237.8h434.648V935.433h-37.8V878.74H973.228v56.693H856.062V878.74H735.118Z" fill="#fff"/>
		</g>
		<path id="Downloads-Button" d="M-1743.4 2390.11c-.26-.64-.9-1.06-1.58-1.04h-10.51v-21.88c0-.94-.77-1.72-1.71-1.72h-13.56c-.98 0-1.74.76-1.74 1.74v21.86h-10.79c-.68.01-1.3.41-1.58 1.04-.27.63-.16 1.37.28 1.9l19.31 20.9c.35.34.82.53 1.31.54.49 0 .92-.22 1.25-.54l19.04-20.9c.44-.53.55-1.27.28-1.9" fill="#698094" transform="matrix(.29006 0 0 .24482 1527.57 -616.573)"/>
		<path d="m991.388-38.331-2.748 2.57h-1.689l-.065-.001c-1.165 0-2.13.945-2.154 2.11v6.72a2.165 2.165 0 0 0 2.154 2.106l.065-.001h8.878c1.247 0 2.253-.945 2.253-2.105v-6.72c0-1.164-1.009-2.109-2.253-2.109h-1.693l-2.748-2.57Zm-4.014 4.479c.594 0 1.059.434 1.059.99 0 .555-.465 1.02-1.059 1.02-.593 0-1.092-.465-1.092-1.02 0-.556.499-.99 1.092-.99Zm1.939.332h6.796c.098 0 .177.076.177.163v1.02c0 .091-.079.167-.177.167h-6.796c-.098 0-.177-.076-.177-.167v-1.02c0-.087.079-.163.177-.163Zm-1.939 2.336c.594 0 1.059.469 1.059 1.02 0 .556-.465.991-1.059.991-.593 0-1.092-.435-1.092-.987 0-.555.499-1.02 1.092-1.02v-.004Zm1.939.333h6.796c.098 0 .177.075.177.162v1.021c0 .09-.079.166-.177.166h-6.796c-.098 0-.177-.076-.177-.166v-1.021c0-.087.079-.162.177-.162Zm-1.939 2.335c.594 0 1.059.469 1.059 1.021 0 .555-.465.99-1.059.99-.593 0-1.092-.435-1.092-.99 0-.552.499-1.021 1.092-1.021Zm1.939.363h6.796c.098 0 .177.076.177.166V-27c0 .091-.079.166-.177.166h-6.796c-.098 0-.177-.075-.177-.166v-.987c0-.09.079-.166.177-.166Z" fill="#698094"/>
		<path id="Address-Bar" fill="#fff" d="M15.882-43.173h957.044v23.187H15.882z"/>
		<path id="Favorite-Button" d="M955.989-37.862c-.196 0-.344.158-.419.309l-1.917 3.61-4.252.59c-.211.03-.48.124-.48.362 0 .144.11.261.212.363l3.084 2.797-.718 3.976c-.011.057-.03.114-.03.17 0 .204.113.389.359.389.117 0 .219-.056.329-.113l3.828-1.844 3.803 1.848c.102.053.211.113.328.113.246 0 .359-.181.359-.393 0-.056-.022-.113-.03-.17l-.718-3.972 3.084-2.797c.114-.106.208-.227.208-.367 0-.238-.272-.332-.476-.362l-4.252-.59-1.916-3.61c-.076-.151-.193-.309-.39-.309h.004Zm0 3.163 1.134 2.211 2.608.363-1.89 1.708.454 2.434-2.306-1.145-2.336 1.145.45-2.434-1.89-1.708 2.608-.363 1.168-2.211Zm-5.178 2.185h.057c0 .011-.027.015-.03.026l-.027-.026Zm10.265 0h.061l-.03.026c0-.011-.027-.015-.031-.026Zm-8.262 5.593a.16.16 0 0 0 .061.031l-.091.056.03-.087Zm6.316 0 .03.087-.091-.056a.223.223 0 0 0 .061-.027v-.004Z" fill="#698094"/>
		<path id="Home-Button" d="m4.86-31.664-6.984-6.055a1.163 1.163 0 0 0-1.474 0l-6.988 6.059h1.799l5.85-4.838 5.953 4.838 1.844-.004Zm-7.748-3.81-4.894 4.15-.004 5.514c0 .352.246.643.544.643h3.266v-4.626h2.177v4.626h3.273c.295 0 .544-.291.544-.643l-.007-5.514c0-.019-4.895-4.15-4.895-4.15h-.004Z" fill="#698094"/>
		<path id="Reload-Button" d="M1447.61 1646.8c-.01-.59-.36-1.13-.91-1.37-.56-.24-1.21-.11-1.64.32l-3.02 3.01a18.152 18.152 0 0 0-12.34-4.94c-9.81.02-17.88 8.09-17.9 17.9.02 9.82 8.09 17.88 17.9 17.9 5.33.01 10.38-2.36 13.78-6.45.23-.31.23-.75-.05-1.01l-3.19-3.21a.881.881 0 0 0-.58-.21c-.21.01-.41.11-.54.28a11.827 11.827 0 0 1-9.42 4.64c-6.54-.02-11.92-5.39-11.93-11.94.01-6.54 5.39-11.92 11.93-11.93 3.06 0 5.95 1.16 8.14 3.19l-3.22 3.22a1.44 1.44 0 0 0-.32 1.61c.22.55.77.92 1.37.93h10.44c.82-.01 1.49-.68 1.5-1.49v-10.45" fill="#698094" transform="translate(-537.713 -626.638) scale(.3581)"/>
		<path id="Next-Button" d="M363.847 1651.24c0-1.98-1.315-3.74-3.416-3.74H339.87l8.557-8.55a3.785 3.785 0 0 0 1.111-2.66c-.004-1-.404-1.95-1.111-2.66l-2.192-2.16a3.753 3.753 0 0 0-2.627-1.11c-.994 0-1.958.41-2.657 1.11l-19.011 18.98a3.78 3.78 0 0 0 0 5.29l19.011 19.04a3.775 3.775 0 0 0 5.287 0l2.193-2.22a3.673 3.673 0 0 0 0-5.26l-8.561-8.58h20.561c2.101 0 3.416-1.75 3.416-3.74v-3.74" fill="#698094" transform="matrix(-.29825 0 0 -.2818 53.495 434.26)"/>
		<path id="Back-Button" d="M363.847 1651.24c0-1.98-1.315-3.74-3.416-3.74H339.87l8.557-8.55a3.785 3.785 0 0 0 1.111-2.66c-.004-1-.404-1.95-1.111-2.66l-2.192-2.16a3.753 3.753 0 0 0-2.627-1.11c-.994 0-1.958.41-2.657 1.11l-19.011 18.98a3.78 3.78 0 0 0 0 5.29l19.011 19.04a3.775 3.775 0 0 0 5.287 0l2.193-2.22a3.673 3.673 0 0 0 0-5.26l-8.561-8.58h20.561c2.101 0 3.416-1.75 3.416-3.74v-3.74" fill="#698094" transform="matrix(.29825 0 0 .2818 -173.594 -497.416)"/>
		<image xlink:href="./background.jfif" width="1190" aspect-ratio="1" x="-90" y="-10" style="filter:url(#blur)"/>
		<image xlink:href="./extension.png" width="340" aspect-ratio="1" x="710" y="-20" />
	</g>
</svg>
